<svg width="168" height="40" viewBox="0 0 168 40" fill="none" xmlns="http://www.w3.org/2000/svg">
<path d="M10.9058 7.84097C8.38634 7.84097 7.0906 9.2087 7.0906 11.4763V15.0755H13.1734V17.703H7.34255V33H3.74326V17.703H0.899822V15.0755H6.91063V15.0036C4.78705 14.2117 3.49131 12.556 3.49131 10.4685C3.49131 6.97714 5.93883 4.92555 10.078 4.92555C11.4817 4.92555 12.8495 5.21349 13.9292 5.75338L13.4253 8.48884C12.6695 8.05693 11.8417 7.84097 10.9058 7.84097ZM16.2654 11.3323V7.26509H19.8647V11.3323H16.2654ZM16.2654 33V15.0755H19.8647V33H16.2654ZM35.561 17.703H29.6581V27.4571C29.6581 29.3647 30.8099 30.4445 32.7895 30.4445C33.6533 30.4445 34.5892 30.2285 35.309 29.8686V32.6041C34.3012 33.072 32.9335 33.3599 31.6377 33.3599C28.1464 33.3599 26.0588 31.3083 26.0588 27.817V17.703H23.2874V15.0755H26.3108V8.95675H29.9101V10.4685C29.9101 12.556 28.6143 14.2117 26.4548 15.0036V15.0755H35.561V17.703ZM50.8863 15.0755H54.7736L49.4106 33H42.536L37.1731 15.0755H41.0243L45.9193 32.748H45.9913L50.8863 15.0755ZM73.8973 24.0378V24.5417H60.436C60.58 28.3209 62.4516 30.5525 65.439 30.5525C68.0665 30.5525 69.9021 29.1128 70.37 26.6653H73.8973C73.2855 30.8764 70.1541 33.3599 65.439 33.3599C60.0761 33.3599 56.9447 29.9046 56.9447 24.0378C56.9447 18.1709 60.0761 14.7156 65.439 14.7156C70.7659 14.7156 73.8973 18.1709 73.8973 24.0378ZM65.439 17.5231C62.5596 17.5231 60.7599 19.5387 60.472 23.03H70.334C70.0461 19.5387 68.2824 17.5231 65.439 17.5231ZM87.4872 14.7156C88.495 14.7156 89.5388 14.9316 90.2586 15.2555L89.1788 18.6028C88.495 18.2069 87.5232 17.955 86.5874 17.955C83.492 17.955 81.6923 20.3665 81.6923 24.4697V33H78.093V15.0755H81.6923V22.0942H81.7643C81.7643 17.4511 83.8879 14.7156 87.4872 14.7156ZM99.3713 33.3599C94.4763 33.3599 91.5608 31.0924 91.5608 27.2051H94.9802C94.9802 29.5447 96.5998 30.9484 99.3713 30.9484C102.107 30.9484 103.69 29.9046 103.69 28.105C103.69 25.8374 101.315 25.4415 98.7234 24.9736C95.628 24.4697 92.1007 23.8578 92.1007 19.9706C92.1007 16.6952 94.8002 14.7156 99.3713 14.7156C103.942 14.7156 106.642 16.9112 106.642 20.6544H103.223C103.223 18.4229 101.819 17.0911 99.3713 17.0911C96.9958 17.0911 95.592 18.063 95.592 19.6826C95.592 21.5543 97.7516 21.9502 100.199 22.3821C103.402 22.958 107.182 23.6059 107.182 27.781C107.182 31.2723 104.266 33.3599 99.3713 33.3599ZM127.184 24.0378V24.5417H113.722C113.866 28.3209 115.738 30.5525 118.725 30.5525C121.353 30.5525 123.188 29.1128 123.656 26.6653H127.184C126.572 30.8764 123.44 33.3599 118.725 33.3599C113.362 33.3599 110.231 29.9046 110.231 24.0378C110.231 18.1709 113.362 14.7156 118.725 14.7156C124.052 14.7156 127.184 18.1709 127.184 24.0378ZM118.725 17.5231C115.846 17.5231 114.046 19.5387 113.758 23.03H123.62C123.332 19.5387 121.569 17.5231 118.725 17.5231ZM130.632 29.0048H134.843V33H130.632V29.0048ZM152.353 15.0755H155.952V33H152.353V27.0252H152.281C152.281 30.9844 149.869 33.3599 145.766 33.3599C141.087 33.3599 138.315 29.9046 138.315 24.0378C138.315 18.1709 141.087 14.7156 145.766 14.7156C149.869 14.7156 152.281 17.0911 152.281 21.0504H152.353V15.0755ZM147.314 30.4445C150.661 30.4445 152.604 27.925 152.604 24.0378C152.604 20.1505 150.661 17.631 147.314 17.631C143.966 17.631 142.023 20.0066 142.023 24.0378C142.023 28.069 143.966 30.4445 147.314 30.4445ZM161.256 11.3323V7.26509H164.856V11.3323H161.256ZM161.256 33V15.0755H164.856V33H161.256Z" fill="#162B3F"/>
</svg>
